{
    "asset" : {
        "generator" : "Khronos glTF Blender I/O v1.4.40",
        "version" : "2.0"
    },
    "scene" : 0,
    "scenes" : [
        {
            "name" : "Scene",
            "nodes" : [
                1,
                2,
                3
            ]
        }
    ],
    "nodes" : [
        {
            "camera" : 0,
            "name" : "Camera",
            "rotation" : [
                -0.7071067690849304,
                0,
                0,
                0.7071067690849304
            ]
        },
        {
            "children" : [
                0
            ],
            "rotation" : [
                -0.45523717999458313,
                0.5410721302032471,
                -0.4552372395992279,
                -0.5410721898078918
            ],
            "translation" : [
                -9.062353134155273,
                2.7941832542419434,
                0
            ]
        },
        {
            "mesh" : 0,
            "name" : "bot1"
        },
        {
            "mesh" : 1,
            "name" : "top1"
        }
    ],
    "cameras" : [
        {
            "name" : "Camera",
            "perspective" : {
                "aspectRatio" : 1.7777777777777777,
                "yfov" : 0.39959652046304894,
                "zfar" : 100,
                "znear" : 0.10000000149011612
            },
            "type" : "perspective"
        }
    ],
    "materials" : [
        {
            "doubleSided" : true,
            "name" : "treds",
            "pbrMetallicRoughness" : {
                "baseColorTexture" : {
                    "index" : 0,
                    "texCoord" : 0
                },
                "metallicFactor" : 0,
                "roughnessFactor" : 0.5
            }
        },
        {
            "doubleSided" : true,
            "name" : "whiel",
            "pbrMetallicRoughness" : {
                "baseColorTexture" : {
                    "index" : 1,
                    "texCoord" : 0
                },
                "metallicFactor" : 0,
                "roughnessFactor" : 0.5
            }
        },
        {
            "doubleSided" : true,
            "name" : "tank_1_color",
            "pbrMetallicRoughness" : {
                "baseColorTexture" : {
                    "index" : 2,
                    "texCoord" : 0
                },
                "metallicFactor" : 0,
                "roughnessFactor" : 0.5
            }
        }
    ],
    "meshes" : [
        {
            "name" : "Cube.007",
            "primitives" : [
                {
                    "attributes" : {
                        "POSITION" : 0,
                        "NORMAL" : 1,
                        "TEXCOORD_0" : 2
                    },
                    "indices" : 3,
                    "material" : 0
                },
                {
                    "attributes" : {
                        "POSITION" : 4,
                        "NORMAL" : 5,
                        "TEXCOORD_0" : 6
                    },
                    "indices" : 7,
                    "material" : 1
                },
                {
                    "attributes" : {
                        "POSITION" : 8,
                        "NORMAL" : 9,
                        "TEXCOORD_0" : 10
                    },
                    "indices" : 11,
                    "material" : 2
                }
            ]
        },
        {
            "name" : "Cube.008",
            "primitives" : [
                {
                    "attributes" : {
                        "POSITION" : 12,
                        "NORMAL" : 13,
                        "TEXCOORD_0" : 14
                    },
                    "indices" : 15,
                    "material" : 2
                }
            ]
        }
    ],
    "textures" : [
        {
            "sampler" : 0,
            "source" : 0
        },
        {
            "sampler" : 0,
            "source" : 1
        },
        {
            "sampler" : 0,
            "source" : 2
        }
    ],
    "images" : [
        {
            "mimeType" : "image/png",
            "name" : "treds",
            "uri" : "treds.png"
        },
        {
            "mimeType" : "image/png",
            "name" : "whiel",
            "uri" : "whiel.png"
        },
        {
            "mimeType" : "image/png",
            "name" : "tank_1_color",
            "uri" : "tank_1_color.png"
        }
    ],
    "accessors" : [
        {
            "bufferView" : 0,
            "componentType" : 5126,
            "count" : 140304,
            "max" : [
                1.9477217197418213,
                0.8214022517204285,
                0.958266019821167
            ],
            "min" : [
                -2.146205425262451,
                0.0309065580368042,
                -0.9582660794258118
            ],
            "type" : "VEC3"
        },
        {
            "bufferView" : 1,
            "componentType" : 5126,
            "count" : 140304,
            "type" : "VEC3"
        },
        {
            "bufferView" : 2,
            "componentType" : 5126,
            "count" : 140304,
            "type" : "VEC2"
        },
        {
            "bufferView" : 3,
            "componentType" : 5125,
            "count" : 210456,
            "type" : "SCALAR"
        },
        {
            "bufferView" : 4,
            "componentType" : 5126,
            "count" : 2304,
            "max" : [
                1.8926961421966553,
                0.7671241164207458,
                0.9332296252250671
            ],
            "min" : [
                -2.0762672424316406,
                0.07536542415618896,
                -0.9332296252250671
            ],
            "type" : "VEC3"
        },
        {
            "bufferView" : 5,
            "componentType" : 5126,
            "count" : 2304,
            "type" : "VEC3"
        },
        {
            "bufferView" : 6,
            "componentType" : 5126,
            "count" : 2304,
            "type" : "VEC2"
        },
        {
            "bufferView" : 7,
            "componentType" : 5123,
            "count" : 4320,
            "type" : "SCALAR"
        },
        {
            "bufferView" : 8,
            "componentType" : 5126,
            "count" : 1130,
            "max" : [
                1.9755971431732178,
                1.0536935329437256,
                1
            ],
            "min" : [
                -2.1546671390533447,
                0.2250499725341797,
                -1
            ],
            "type" : "VEC3"
        },
        {
            "bufferView" : 9,
            "componentType" : 5126,
            "count" : 1130,
            "type" : "VEC3"
        },
        {
            "bufferView" : 10,
            "componentType" : 5126,
            "count" : 1130,
            "type" : "VEC2"
        },
        {
            "bufferView" : 11,
            "componentType" : 5123,
            "count" : 1776,
            "type" : "SCALAR"
        },
        {
            "bufferView" : 12,
            "componentType" : 5126,
            "count" : 736,
            "max" : [
                3.015054941177368,
                1.3344480991363525,
                0.4749547839164734
            ],
            "min" : [
                -0.6499080657958984,
                0.9629228711128235,
                -0.4749547839164734
            ],
            "type" : "VEC3"
        },
        {
            "bufferView" : 13,
            "componentType" : 5126,
            "count" : 736,
            "type" : "VEC3"
        },
        {
            "bufferView" : 14,
            "componentType" : 5126,
            "count" : 736,
            "type" : "VEC2"
        },
        {
            "bufferView" : 15,
            "componentType" : 5123,
            "count" : 1212,
            "type" : "SCALAR"
        }
    ],
    "bufferViews" : [
        {
            "buffer" : 0,
            "byteLength" : 1683648,
            "byteOffset" : 0
        },
        {
            "buffer" : 0,
            "byteLength" : 1683648,
            "byteOffset" : 1683648
        },
        {
            "buffer" : 0,
            "byteLength" : 1122432,
            "byteOffset" : 3367296
        },
        {
            "buffer" : 0,
            "byteLength" : 841824,
            "byteOffset" : 4489728
        },
        {
            "buffer" : 0,
            "byteLength" : 27648,
            "byteOffset" : 5331552
        },
        {
            "buffer" : 0,
            "byteLength" : 27648,
            "byteOffset" : 5359200
        },
        {
            "buffer" : 0,
            "byteLength" : 18432,
            "byteOffset" : 5386848
        },
        {
            "buffer" : 0,
            "byteLength" : 8640,
            "byteOffset" : 5405280
        },
        {
            "buffer" : 0,
            "byteLength" : 13560,
            "byteOffset" : 5413920
        },
        {
            "buffer" : 0,
            "byteLength" : 13560,
            "byteOffset" : 5427480
        },
        {
            "buffer" : 0,
            "byteLength" : 9040,
            "byteOffset" : 5441040
        },
        {
            "buffer" : 0,
            "byteLength" : 3552,
            "byteOffset" : 5450080
        },
        {
            "buffer" : 0,
            "byteLength" : 8832,
            "byteOffset" : 5453632
        },
        {
            "buffer" : 0,
            "byteLength" : 8832,
            "byteOffset" : 5462464
        },
        {
            "buffer" : 0,
            "byteLength" : 5888,
            "byteOffset" : 5471296
        },
        {
            "buffer" : 0,
            "byteLength" : 2424,
            "byteOffset" : 5477184
        }
    ],
    "samplers" : [
        {
            "magFilter" : 9729,
            "minFilter" : 9986
        }
    ],
    "buffers" : [
        {
            "byteLength" : 5479608,
            "uri" : "tank1.bin"
        }
    ]
}
