{
    "asset" : {
        "generator" : "Khronos glTF Blender I/O v1.4.40",
        "version" : "2.0"
    },
    "scene" : 0,
    "scenes" : [
        {
            "name" : "Scene",
            "nodes" : [
                1,
                2,
                3
            ]
        }
    ],
    "nodes" : [
        {
            "camera" : 0,
            "name" : "Camera",
            "rotation" : [
                -0.7071067690849304,
                0,
                0,
                0.7071067690849304
            ]
        },
        {
            "children" : [
                0
            ],
            "rotation" : [
                -0.45523717999458313,
                0.5410721302032471,
                -0.4552372395992279,
                -0.5410721898078918
            ],
            "translation" : [
                -9.062352180480957,
                2.7941837310791016,
                0
            ]
        },
        {
            "mesh" : 0,
            "name" : "bot3"
        },
        {
            "mesh" : 1,
            "name" : "top3"
        }
    ],
    "cameras" : [
        {
            "name" : "Camera",
            "perspective" : {
                "aspectRatio" : 1.7777777777777777,
                "yfov" : 0.39959652046304894,
                "zfar" : 100,
                "znear" : 0.10000000149011612
            },
            "type" : "perspective"
        }
    ],
    "materials" : [
        {
            "doubleSided" : true,
            "name" : "tank_3_color",
            "pbrMetallicRoughness" : {
                "baseColorTexture" : {
                    "index" : 0,
                    "texCoord" : 0
                },
                "metallicFactor" : 0,
                "roughnessFactor" : 0.5
            }
        },
        {
            "doubleSided" : true,
            "name" : "whiel",
            "pbrMetallicRoughness" : {
                "baseColorTexture" : {
                    "index" : 1,
                    "texCoord" : 0
                },
                "metallicFactor" : 0,
                "roughnessFactor" : 0.5
            }
        },
        {
            "doubleSided" : true,
            "name" : "treds",
            "pbrMetallicRoughness" : {
                "baseColorTexture" : {
                    "index" : 2,
                    "texCoord" : 0
                },
                "metallicFactor" : 0,
                "roughnessFactor" : 0.5
            }
        }
    ],
    "meshes" : [
        {
            "name" : "Cube.005",
            "primitives" : [
                {
                    "attributes" : {
                        "POSITION" : 0,
                        "NORMAL" : 1,
                        "TEXCOORD_0" : 2
                    },
                    "indices" : 3,
                    "material" : 0
                },
                {
                    "attributes" : {
                        "POSITION" : 4,
                        "NORMAL" : 5,
                        "TEXCOORD_0" : 6
                    },
                    "indices" : 7,
                    "material" : 1
                },
                {
                    "attributes" : {
                        "POSITION" : 8,
                        "NORMAL" : 9,
                        "TEXCOORD_0" : 10
                    },
                    "indices" : 11,
                    "material" : 2
                }
            ]
        },
        {
            "name" : "Cylinder.006",
            "primitives" : [
                {
                    "attributes" : {
                        "POSITION" : 12,
                        "NORMAL" : 13,
                        "TEXCOORD_0" : 14
                    },
                    "indices" : 15,
                    "material" : 0
                }
            ]
        }
    ],
    "textures" : [
        {
            "sampler" : 0,
            "source" : 0
        },
        {
            "sampler" : 0,
            "source" : 1
        },
        {
            "sampler" : 0,
            "source" : 2
        }
    ],
    "images" : [
        {
            "mimeType" : "image/png",
            "name" : "tank_3_color",
            "uri" : "tank_3_color.png"
        },
        {
            "mimeType" : "image/png",
            "name" : "whiel",
            "uri" : "whiel.png"
        },
        {
            "mimeType" : "image/png",
            "name" : "treds",
            "uri" : "treds.png"
        }
    ],
    "accessors" : [
        {
            "bufferView" : 0,
            "componentType" : 5126,
            "count" : 529,
            "max" : [
                1.1550740003585815,
                1.0727413892745972,
                0.6936843395233154
            ],
            "min" : [
                -0.9552966952323914,
                0.2403201311826706,
                -0.6936843395233154
            ],
            "type" : "VEC3"
        },
        {
            "bufferView" : 1,
            "componentType" : 5126,
            "count" : 529,
            "type" : "VEC3"
        },
        {
            "bufferView" : 2,
            "componentType" : 5126,
            "count" : 529,
            "type" : "VEC2"
        },
        {
            "bufferView" : 3,
            "componentType" : 5123,
            "count" : 972,
            "type" : "SCALAR"
        },
        {
            "bufferView" : 4,
            "componentType" : 5126,
            "count" : 768,
            "max" : [
                1.0547775030136108,
                0.4790756404399872,
                0.7762516140937805
            ],
            "min" : [
                -1.0547775030136108,
                0.06936965137720108,
                -0.7762516140937805
            ],
            "type" : "VEC3"
        },
        {
            "bufferView" : 5,
            "componentType" : 5126,
            "count" : 768,
            "type" : "VEC3"
        },
        {
            "bufferView" : 6,
            "componentType" : 5126,
            "count" : 768,
            "type" : "VEC2"
        },
        {
            "bufferView" : 7,
            "componentType" : 5123,
            "count" : 1440,
            "type" : "SCALAR"
        },
        {
            "bufferView" : 8,
            "componentType" : 5126,
            "count" : 15456,
            "max" : [
                1.1180351972579956,
                0.5412746667861938,
                0.7751296162605286
            ],
            "min" : [
                -1.1095765829086304,
                0.01356527116149664,
                -0.7751296162605286
            ],
            "type" : "VEC3"
        },
        {
            "bufferView" : 9,
            "componentType" : 5126,
            "count" : 15456,
            "type" : "VEC3"
        },
        {
            "bufferView" : 10,
            "componentType" : 5126,
            "count" : 15456,
            "type" : "VEC2"
        },
        {
            "bufferView" : 11,
            "componentType" : 5123,
            "count" : 21528,
            "type" : "SCALAR"
        },
        {
            "bufferView" : 12,
            "componentType" : 5126,
            "count" : 2016,
            "max" : [
                1.1098804473876953,
                1.549060583114624,
                0.31528240442276
            ],
            "min" : [
                -0.3152823746204376,
                1.0555840730667114,
                -0.3152823746204376
            ],
            "type" : "VEC3"
        },
        {
            "bufferView" : 13,
            "componentType" : 5126,
            "count" : 2016,
            "type" : "VEC3"
        },
        {
            "bufferView" : 14,
            "componentType" : 5126,
            "count" : 2016,
            "type" : "VEC2"
        },
        {
            "bufferView" : 15,
            "componentType" : 5123,
            "count" : 3132,
            "type" : "SCALAR"
        }
    ],
    "bufferViews" : [
        {
            "buffer" : 0,
            "byteLength" : 6348,
            "byteOffset" : 0
        },
        {
            "buffer" : 0,
            "byteLength" : 6348,
            "byteOffset" : 6348
        },
        {
            "buffer" : 0,
            "byteLength" : 4232,
            "byteOffset" : 12696
        },
        {
            "buffer" : 0,
            "byteLength" : 1944,
            "byteOffset" : 16928
        },
        {
            "buffer" : 0,
            "byteLength" : 9216,
            "byteOffset" : 18872
        },
        {
            "buffer" : 0,
            "byteLength" : 9216,
            "byteOffset" : 28088
        },
        {
            "buffer" : 0,
            "byteLength" : 6144,
            "byteOffset" : 37304
        },
        {
            "buffer" : 0,
            "byteLength" : 2880,
            "byteOffset" : 43448
        },
        {
            "buffer" : 0,
            "byteLength" : 185472,
            "byteOffset" : 46328
        },
        {
            "buffer" : 0,
            "byteLength" : 185472,
            "byteOffset" : 231800
        },
        {
            "buffer" : 0,
            "byteLength" : 123648,
            "byteOffset" : 417272
        },
        {
            "buffer" : 0,
            "byteLength" : 43056,
            "byteOffset" : 540920
        },
        {
            "buffer" : 0,
            "byteLength" : 24192,
            "byteOffset" : 583976
        },
        {
            "buffer" : 0,
            "byteLength" : 24192,
            "byteOffset" : 608168
        },
        {
            "buffer" : 0,
            "byteLength" : 16128,
            "byteOffset" : 632360
        },
        {
            "buffer" : 0,
            "byteLength" : 6264,
            "byteOffset" : 648488
        }
    ],
    "samplers" : [
        {
            "magFilter" : 9729,
            "minFilter" : 9986
        }
    ],
    "buffers" : [
        {
            "byteLength" : 654752,
            "uri" : "tank3.bin"
        }
    ]
}
