{
    "asset" : {
        "generator" : "Khronos glTF Blender I/O v1.4.40",
        "version" : "2.0"
    },
    "scene" : 0,
    "scenes" : [
        {
            "name" : "Scene",
            "nodes" : [
                0
            ]
        }
    ],
    "nodes" : [
        {
            "mesh" : 0,
            "name" : "ground"
        }
    ],
    "materials" : [
        {
            "doubleSided" : true,
            "name" : "ground",
            "pbrMetallicRoughness" : {
                "baseColorTexture" : {
                    "index" : 0,
                    "texCoord" : 0
                },
                "metallicFactor" : 0,
                "roughnessFactor" : 0.5
            }
        },
        {
            "doubleSided" : true,
            "name" : "rock",
            "pbrMetallicRoughness" : {
                "baseColorTexture" : {
                    "index" : 1,
                    "texCoord" : 0
                },
                "metallicFactor" : 0,
                "roughnessFactor" : 0.5
            }
        },
        {
            "doubleSided" : true,
            "name" : "tank_2_color_enemy",
            "pbrMetallicRoughness" : {
                "baseColorTexture" : {
                    "index" : 2,
                    "texCoord" : 0
                },
                "metallicFactor" : 0,
                "roughnessFactor" : 0.5
            }
        },
        {
            "doubleSided" : true,
            "name" : "brown",
            "pbrMetallicRoughness" : {
                "baseColorTexture" : {
                    "index" : 3,
                    "texCoord" : 0
                },
                "metallicFactor" : 0,
                "roughnessFactor" : 0.5
            }
        },
        {
            "doubleSided" : true,
            "name" : "tank_2_color_k_enemy",
            "pbrMetallicRoughness" : {
                "baseColorTexture" : {
                    "index" : 4,
                    "texCoord" : 0
                },
                "metallicFactor" : 0,
                "roughnessFactor" : 0.5
            }
        },
        {
            "doubleSided" : true,
            "name" : "red",
            "pbrMetallicRoughness" : {
                "baseColorTexture" : {
                    "index" : 5,
                    "texCoord" : 0
                },
                "metallicFactor" : 0,
                "roughnessFactor" : 0.5
            }
        }
    ],
    "meshes" : [
        {
            "name" : "Plane.004",
            "primitives" : [
                {
                    "attributes" : {
                        "POSITION" : 0,
                        "NORMAL" : 1,
                        "TEXCOORD_0" : 2
                    },
                    "indices" : 3,
                    "material" : 0
                },
                {
                    "attributes" : {
                        "POSITION" : 4,
                        "NORMAL" : 5,
                        "TEXCOORD_0" : 6
                    },
                    "indices" : 7,
                    "material" : 1
                },
                {
                    "attributes" : {
                        "POSITION" : 8,
                        "NORMAL" : 9,
                        "TEXCOORD_0" : 10
                    },
                    "indices" : 11,
                    "material" : 2
                },
                {
                    "attributes" : {
                        "POSITION" : 12,
                        "NORMAL" : 13,
                        "TEXCOORD_0" : 14
                    },
                    "indices" : 15,
                    "material" : 3
                },
                {
                    "attributes" : {
                        "POSITION" : 16,
                        "NORMAL" : 17,
                        "TEXCOORD_0" : 18
                    },
                    "indices" : 19,
                    "material" : 4
                },
                {
                    "attributes" : {
                        "POSITION" : 20,
                        "NORMAL" : 21,
                        "TEXCOORD_0" : 22
                    },
                    "indices" : 23,
                    "material" : 5
                }
            ]
        }
    ],
    "textures" : [
        {
            "sampler" : 0,
            "source" : 0
        },
        {
            "sampler" : 0,
            "source" : 1
        },
        {
            "sampler" : 0,
            "source" : 2
        },
        {
            "sampler" : 0,
            "source" : 3
        },
        {
            "sampler" : 0,
            "source" : 4
        },
        {
            "sampler" : 0,
            "source" : 5
        }
    ],
    "images" : [
        {
            "mimeType" : "image/png",
            "name" : "ground",
            "uri" : "ground.png"
        },
        {
            "mimeType" : "image/png",
            "name" : "rock",
            "uri" : "rock.png"
        },
        {
            "mimeType" : "image/png",
            "name" : "tank_2_color_enemy",
            "uri" : "tank_2_color_enemy.png"
        },
        {
            "mimeType" : "image/png",
            "name" : "brown",
            "uri" : "brown.png"
        },
        {
            "mimeType" : "image/png",
            "name" : "tank_2_color_k_enemy",
            "uri" : "tank_2_color_k_enemy.png"
        },
        {
            "mimeType" : "image/png",
            "name" : "red",
            "uri" : "red.png"
        }
    ],
    "accessors" : [
        {
            "bufferView" : 0,
            "componentType" : 5126,
            "count" : 4,
            "max" : [
                20,
                0,
                20
            ],
            "min" : [
                -20,
                0,
                -20
            ],
            "type" : "VEC3"
        },
        {
            "bufferView" : 1,
            "componentType" : 5126,
            "count" : 4,
            "type" : "VEC3"
        },
        {
            "bufferView" : 2,
            "componentType" : 5126,
            "count" : 4,
            "type" : "VEC2"
        },
        {
            "bufferView" : 3,
            "componentType" : 5123,
            "count" : 6,
            "type" : "SCALAR"
        },
        {
            "bufferView" : 4,
            "componentType" : 5126,
            "count" : 660,
            "max" : [
                15.810722351074219,
                1.9711840152740479,
                11.970029830932617
            ],
            "min" : [
                -14.223170280456543,
                -0.5392178297042847,
                -15.67486572265625
            ],
            "type" : "VEC3"
        },
        {
            "bufferView" : 5,
            "componentType" : 5126,
            "count" : 660,
            "type" : "VEC3"
        },
        {
            "bufferView" : 6,
            "componentType" : 5126,
            "count" : 660,
            "type" : "VEC2"
        },
        {
            "bufferView" : 7,
            "componentType" : 5123,
            "count" : 660,
            "type" : "SCALAR"
        },
        {
            "bufferView" : 8,
            "componentType" : 5126,
            "count" : 24,
            "max" : [
                -6.59547233581543,
                2.0778160095214844,
                10.423419952392578
            ],
            "min" : [
                -11.36654281616211,
                0.07781600952148438,
                4.7426228523254395
            ],
            "type" : "VEC3"
        },
        {
            "bufferView" : 9,
            "componentType" : 5126,
            "count" : 24,
            "type" : "VEC3"
        },
        {
            "bufferView" : 10,
            "componentType" : 5126,
            "count" : 24,
            "type" : "VEC2"
        },
        {
            "bufferView" : 11,
            "componentType" : 5123,
            "count" : 36,
            "type" : "SCALAR"
        },
        {
            "bufferView" : 12,
            "componentType" : 5126,
            "count" : 48,
            "max" : [
                -6.942512035369873,
                2.2476325035095215,
                9.809843063354492
            ],
            "min" : [
                -11.019502639770508,
                -0.09200036525726318,
                5.356200695037842
            ],
            "type" : "VEC3"
        },
        {
            "bufferView" : 13,
            "componentType" : 5126,
            "count" : 48,
            "type" : "VEC3"
        },
        {
            "bufferView" : 14,
            "componentType" : 5126,
            "count" : 48,
            "type" : "VEC2"
        },
        {
            "bufferView" : 15,
            "componentType" : 5123,
            "count" : 72,
            "type" : "SCALAR"
        },
        {
            "bufferView" : 16,
            "componentType" : 5126,
            "count" : 160,
            "max" : [
                -2.9760875701904297,
                3.176360607147217,
                11.719158172607422
            ],
            "min" : [
                -6.775686264038086,
                0.004025459289550781,
                8.483968734741211
            ],
            "type" : "VEC3"
        },
        {
            "bufferView" : 17,
            "componentType" : 5126,
            "count" : 160,
            "type" : "VEC3"
        },
        {
            "bufferView" : 18,
            "componentType" : 5126,
            "count" : 160,
            "type" : "VEC2"
        },
        {
            "bufferView" : 19,
            "componentType" : 5123,
            "count" : 240,
            "type" : "SCALAR"
        },
        {
            "bufferView" : 20,
            "componentType" : 5126,
            "count" : 80,
            "max" : [
                -2.716920852661133,
                3.212902069091797,
                11.887001037597656
            ],
            "min" : [
                -6.982850551605225,
                -0.16933822631835938,
                8.475104331970215
            ],
            "type" : "VEC3"
        },
        {
            "bufferView" : 21,
            "componentType" : 5126,
            "count" : 80,
            "type" : "VEC3"
        },
        {
            "bufferView" : 22,
            "componentType" : 5126,
            "count" : 80,
            "type" : "VEC2"
        },
        {
            "bufferView" : 23,
            "componentType" : 5123,
            "count" : 132,
            "type" : "SCALAR"
        }
    ],
    "bufferViews" : [
        {
            "buffer" : 0,
            "byteLength" : 48,
            "byteOffset" : 0
        },
        {
            "buffer" : 0,
            "byteLength" : 48,
            "byteOffset" : 48
        },
        {
            "buffer" : 0,
            "byteLength" : 32,
            "byteOffset" : 96
        },
        {
            "buffer" : 0,
            "byteLength" : 12,
            "byteOffset" : 128
        },
        {
            "buffer" : 0,
            "byteLength" : 7920,
            "byteOffset" : 140
        },
        {
            "buffer" : 0,
            "byteLength" : 7920,
            "byteOffset" : 8060
        },
        {
            "buffer" : 0,
            "byteLength" : 5280,
            "byteOffset" : 15980
        },
        {
            "buffer" : 0,
            "byteLength" : 1320,
            "byteOffset" : 21260
        },
        {
            "buffer" : 0,
            "byteLength" : 288,
            "byteOffset" : 22580
        },
        {
            "buffer" : 0,
            "byteLength" : 288,
            "byteOffset" : 22868
        },
        {
            "buffer" : 0,
            "byteLength" : 192,
            "byteOffset" : 23156
        },
        {
            "buffer" : 0,
            "byteLength" : 72,
            "byteOffset" : 23348
        },
        {
            "buffer" : 0,
            "byteLength" : 576,
            "byteOffset" : 23420
        },
        {
            "buffer" : 0,
            "byteLength" : 576,
            "byteOffset" : 23996
        },
        {
            "buffer" : 0,
            "byteLength" : 384,
            "byteOffset" : 24572
        },
        {
            "buffer" : 0,
            "byteLength" : 144,
            "byteOffset" : 24956
        },
        {
            "buffer" : 0,
            "byteLength" : 1920,
            "byteOffset" : 25100
        },
        {
            "buffer" : 0,
            "byteLength" : 1920,
            "byteOffset" : 27020
        },
        {
            "buffer" : 0,
            "byteLength" : 1280,
            "byteOffset" : 28940
        },
        {
            "buffer" : 0,
            "byteLength" : 480,
            "byteOffset" : 30220
        },
        {
            "buffer" : 0,
            "byteLength" : 960,
            "byteOffset" : 30700
        },
        {
            "buffer" : 0,
            "byteLength" : 960,
            "byteOffset" : 31660
        },
        {
            "buffer" : 0,
            "byteLength" : 640,
            "byteOffset" : 32620
        },
        {
            "buffer" : 0,
            "byteLength" : 264,
            "byteOffset" : 33260
        }
    ],
    "samplers" : [
        {
            "magFilter" : 9729,
            "minFilter" : 9986
        }
    ],
    "buffers" : [
        {
            "byteLength" : 33524,
            "uri" : "floor.bin"
        }
    ]
}
