{
    "asset" : {
        "generator" : "Khronos glTF Blender I/O v1.4.40",
        "version" : "2.0"
    },
    "scene" : 0,
    "scenes" : [
        {
            "name" : "Scene",
            "nodes" : [
                1,
                2,
                3,
                4
            ]
        }
    ],
    "nodes" : [
        {
            "camera" : 0,
            "name" : "Camera",
            "rotation" : [
                -0.7071067690849304,
                0,
                0,
                0.7071067690849304
            ]
        },
        {
            "children" : [
                0
            ],
            "rotation" : [
                0.23095664381980896,
                0.6930830478668213,
                -0.6345714330673218,
                0.252218097448349
            ],
            "translation" : [
                7.218544006347656,
                2.0674972534179688,
                -7.910595893859863
            ]
        },
        {
            "mesh" : 0,
            "name" : "ground"
        },
        {
            "mesh" : 1,
            "name" : "bot1.001"
        },
        {
            "mesh" : 2,
            "name" : "top1.001",
            "rotation" : [
                -0.41783174872398376,
                0.22185271978378296,
                -0.040358442813158035,
                0.8800962567329407
            ],
            "translation" : [
                0,
                1.125372290611267,
                -0.8480699062347412
            ]
        }
    ],
    "cameras" : [
        {
            "name" : "Camera",
            "perspective" : {
                "aspectRatio" : 1.7777777777777777,
                "yfov" : 0.39959652046304894,
                "zfar" : 100,
                "znear" : 0.10000000149011612
            },
            "type" : "perspective"
        }
    ],
    "materials" : [
        {
            "doubleSided" : true,
            "name" : "ground",
            "pbrMetallicRoughness" : {
                "baseColorTexture" : {
                    "index" : 0,
                    "texCoord" : 0
                },
                "metallicFactor" : 0,
                "roughnessFactor" : 0.5
            }
        },
        {
            "doubleSided" : true,
            "name" : "rock",
            "pbrMetallicRoughness" : {
                "baseColorTexture" : {
                    "index" : 1,
                    "texCoord" : 0
                },
                "metallicFactor" : 0,
                "roughnessFactor" : 0.5
            }
        },
        {
            "doubleSided" : true,
            "name" : "tank_2_color_enemy",
            "pbrMetallicRoughness" : {
                "baseColorTexture" : {
                    "index" : 2,
                    "texCoord" : 0
                },
                "metallicFactor" : 0,
                "roughnessFactor" : 0.5
            }
        },
        {
            "doubleSided" : true,
            "name" : "brown",
            "pbrMetallicRoughness" : {
                "baseColorTexture" : {
                    "index" : 3,
                    "texCoord" : 0
                },
                "metallicFactor" : 0,
                "roughnessFactor" : 0.5
            }
        },
        {
            "doubleSided" : true,
            "name" : "tank_2_color_k_enemy",
            "pbrMetallicRoughness" : {
                "baseColorTexture" : {
                    "index" : 4,
                    "texCoord" : 0
                },
                "metallicFactor" : 0,
                "roughnessFactor" : 0.5
            }
        },
        {
            "doubleSided" : true,
            "name" : "red",
            "pbrMetallicRoughness" : {
                "baseColorTexture" : {
                    "index" : 5,
                    "texCoord" : 0
                },
                "metallicFactor" : 0,
                "roughnessFactor" : 0.5
            }
        },
        {
            "doubleSided" : true,
            "name" : "treds",
            "pbrMetallicRoughness" : {
                "baseColorTexture" : {
                    "index" : 6,
                    "texCoord" : 0
                },
                "metallicFactor" : 0,
                "roughnessFactor" : 0.5
            }
        }
    ],
    "meshes" : [
        {
            "name" : "Plane.004",
            "primitives" : [
                {
                    "attributes" : {
                        "POSITION" : 0,
                        "NORMAL" : 1,
                        "TEXCOORD_0" : 2
                    },
                    "indices" : 3,
                    "material" : 0
                },
                {
                    "attributes" : {
                        "POSITION" : 4,
                        "NORMAL" : 5,
                        "TEXCOORD_0" : 6
                    },
                    "indices" : 7,
                    "material" : 1
                },
                {
                    "attributes" : {
                        "POSITION" : 8,
                        "NORMAL" : 9,
                        "TEXCOORD_0" : 10
                    },
                    "indices" : 11,
                    "material" : 2
                },
                {
                    "attributes" : {
                        "POSITION" : 12,
                        "NORMAL" : 13,
                        "TEXCOORD_0" : 14
                    },
                    "indices" : 15,
                    "material" : 3
                },
                {
                    "attributes" : {
                        "POSITION" : 16,
                        "NORMAL" : 17,
                        "TEXCOORD_0" : 18
                    },
                    "indices" : 19,
                    "material" : 4
                },
                {
                    "attributes" : {
                        "POSITION" : 20,
                        "NORMAL" : 21,
                        "TEXCOORD_0" : 22
                    },
                    "indices" : 23,
                    "material" : 5
                }
            ]
        },
        {
            "name" : "Cube.147",
            "primitives" : [
                {
                    "attributes" : {
                        "POSITION" : 24,
                        "NORMAL" : 25,
                        "TEXCOORD_0" : 26
                    },
                    "indices" : 27,
                    "material" : 6
                },
                {
                    "attributes" : {
                        "POSITION" : 28,
                        "NORMAL" : 29,
                        "TEXCOORD_0" : 30
                    },
                    "indices" : 31,
                    "material" : 2
                },
                {
                    "attributes" : {
                        "POSITION" : 32,
                        "NORMAL" : 33,
                        "TEXCOORD_0" : 34
                    },
                    "indices" : 35,
                    "material" : 4
                }
            ]
        },
        {
            "name" : "Cube.148",
            "primitives" : [
                {
                    "attributes" : {
                        "POSITION" : 36,
                        "NORMAL" : 37,
                        "TEXCOORD_0" : 38
                    },
                    "indices" : 39,
                    "material" : 4
                }
            ]
        }
    ],
    "textures" : [
        {
            "sampler" : 0,
            "source" : 0
        },
        {
            "sampler" : 0,
            "source" : 1
        },
        {
            "sampler" : 0,
            "source" : 2
        },
        {
            "sampler" : 0,
            "source" : 3
        },
        {
            "sampler" : 0,
            "source" : 4
        },
        {
            "sampler" : 0,
            "source" : 5
        },
        {
            "sampler" : 0,
            "source" : 6
        }
    ],
    "images" : [
        {
            "mimeType" : "image/png",
            "name" : "ground",
            "uri" : "ground.png"
        },
        {
            "mimeType" : "image/png",
            "name" : "rock",
            "uri" : "rock.png"
        },
        {
            "mimeType" : "image/png",
            "name" : "tank_2_color_enemy",
            "uri" : "tank_2_color_enemy.png"
        },
        {
            "mimeType" : "image/png",
            "name" : "brown",
            "uri" : "brown.png"
        },
        {
            "mimeType" : "image/png",
            "name" : "tank_2_color_k_enemy",
            "uri" : "tank_2_color_k_enemy.png"
        },
        {
            "mimeType" : "image/png",
            "name" : "red",
            "uri" : "red.png"
        },
        {
            "mimeType" : "image/png",
            "name" : "treds",
            "uri" : "treds.png"
        }
    ],
    "accessors" : [
        {
            "bufferView" : 0,
            "componentType" : 5126,
            "count" : 4,
            "max" : [
                20,
                0,
                20
            ],
            "min" : [
                -20,
                0,
                -20
            ],
            "type" : "VEC3"
        },
        {
            "bufferView" : 1,
            "componentType" : 5126,
            "count" : 4,
            "type" : "VEC3"
        },
        {
            "bufferView" : 2,
            "componentType" : 5126,
            "count" : 4,
            "type" : "VEC2"
        },
        {
            "bufferView" : 3,
            "componentType" : 5123,
            "count" : 6,
            "type" : "SCALAR"
        },
        {
            "bufferView" : 4,
            "componentType" : 5126,
            "count" : 660,
            "max" : [
                15.810722351074219,
                1.9711840152740479,
                11.970029830932617
            ],
            "min" : [
                -14.223170280456543,
                -0.5392178297042847,
                -15.67486572265625
            ],
            "type" : "VEC3"
        },
        {
            "bufferView" : 5,
            "componentType" : 5126,
            "count" : 660,
            "type" : "VEC3"
        },
        {
            "bufferView" : 6,
            "componentType" : 5126,
            "count" : 660,
            "type" : "VEC2"
        },
        {
            "bufferView" : 7,
            "componentType" : 5123,
            "count" : 660,
            "type" : "SCALAR"
        },
        {
            "bufferView" : 8,
            "componentType" : 5126,
            "count" : 24,
            "max" : [
                -6.59547233581543,
                2.0778160095214844,
                10.423419952392578
            ],
            "min" : [
                -11.36654281616211,
                0.07781600952148438,
                4.7426228523254395
            ],
            "type" : "VEC3"
        },
        {
            "bufferView" : 9,
            "componentType" : 5126,
            "count" : 24,
            "type" : "VEC3"
        },
        {
            "bufferView" : 10,
            "componentType" : 5126,
            "count" : 24,
            "type" : "VEC2"
        },
        {
            "bufferView" : 11,
            "componentType" : 5123,
            "count" : 36,
            "type" : "SCALAR"
        },
        {
            "bufferView" : 12,
            "componentType" : 5126,
            "count" : 48,
            "max" : [
                -6.942512035369873,
                2.2476325035095215,
                9.809843063354492
            ],
            "min" : [
                -11.019502639770508,
                -0.09200036525726318,
                5.356200695037842
            ],
            "type" : "VEC3"
        },
        {
            "bufferView" : 13,
            "componentType" : 5126,
            "count" : 48,
            "type" : "VEC3"
        },
        {
            "bufferView" : 14,
            "componentType" : 5126,
            "count" : 48,
            "type" : "VEC2"
        },
        {
            "bufferView" : 15,
            "componentType" : 5123,
            "count" : 72,
            "type" : "SCALAR"
        },
        {
            "bufferView" : 16,
            "componentType" : 5126,
            "count" : 160,
            "max" : [
                -2.9760875701904297,
                3.176360607147217,
                11.719158172607422
            ],
            "min" : [
                -6.775686264038086,
                0.004025459289550781,
                8.483968734741211
            ],
            "type" : "VEC3"
        },
        {
            "bufferView" : 17,
            "componentType" : 5126,
            "count" : 160,
            "type" : "VEC3"
        },
        {
            "bufferView" : 18,
            "componentType" : 5126,
            "count" : 160,
            "type" : "VEC2"
        },
        {
            "bufferView" : 19,
            "componentType" : 5123,
            "count" : 240,
            "type" : "SCALAR"
        },
        {
            "bufferView" : 20,
            "componentType" : 5126,
            "count" : 80,
            "max" : [
                -2.716920852661133,
                3.212902069091797,
                11.887001037597656
            ],
            "min" : [
                -6.982850551605225,
                -0.16933822631835938,
                8.475104331970215
            ],
            "type" : "VEC3"
        },
        {
            "bufferView" : 21,
            "componentType" : 5126,
            "count" : 80,
            "type" : "VEC3"
        },
        {
            "bufferView" : 22,
            "componentType" : 5126,
            "count" : 80,
            "type" : "VEC2"
        },
        {
            "bufferView" : 23,
            "componentType" : 5123,
            "count" : 132,
            "type" : "SCALAR"
        },
        {
            "bufferView" : 24,
            "componentType" : 5126,
            "count" : 140304,
            "max" : [
                1.9477217197418213,
                0.8214022517204285,
                0.958266019821167
            ],
            "min" : [
                -2.146205425262451,
                0.0309065580368042,
                -0.9582660794258118
            ],
            "type" : "VEC3"
        },
        {
            "bufferView" : 25,
            "componentType" : 5126,
            "count" : 140304,
            "type" : "VEC3"
        },
        {
            "bufferView" : 26,
            "componentType" : 5126,
            "count" : 140304,
            "type" : "VEC2"
        },
        {
            "bufferView" : 27,
            "componentType" : 5125,
            "count" : 210456,
            "type" : "SCALAR"
        },
        {
            "bufferView" : 28,
            "componentType" : 5126,
            "count" : 2304,
            "max" : [
                1.8926961421966553,
                0.7671241164207458,
                0.9332296252250671
            ],
            "min" : [
                -2.0762672424316406,
                0.07536542415618896,
                -0.9332296252250671
            ],
            "type" : "VEC3"
        },
        {
            "bufferView" : 29,
            "componentType" : 5126,
            "count" : 2304,
            "type" : "VEC3"
        },
        {
            "bufferView" : 30,
            "componentType" : 5126,
            "count" : 2304,
            "type" : "VEC2"
        },
        {
            "bufferView" : 31,
            "componentType" : 5123,
            "count" : 4320,
            "type" : "SCALAR"
        },
        {
            "bufferView" : 32,
            "componentType" : 5126,
            "count" : 1130,
            "max" : [
                1.9755971431732178,
                1.0536935329437256,
                1
            ],
            "min" : [
                -2.1546671390533447,
                0.2250499725341797,
                -1
            ],
            "type" : "VEC3"
        },
        {
            "bufferView" : 33,
            "componentType" : 5126,
            "count" : 1130,
            "type" : "VEC3"
        },
        {
            "bufferView" : 34,
            "componentType" : 5126,
            "count" : 1130,
            "type" : "VEC2"
        },
        {
            "bufferView" : 35,
            "componentType" : 5123,
            "count" : 1776,
            "type" : "SCALAR"
        },
        {
            "bufferView" : 36,
            "componentType" : 5126,
            "count" : 734,
            "max" : [
                3.015054941177368,
                0.2125227451324463,
                0.4749547839164734
            ],
            "min" : [
                -0.6499080657958984,
                -0.15900248289108276,
                -0.4749547839164734
            ],
            "type" : "VEC3"
        },
        {
            "bufferView" : 37,
            "componentType" : 5126,
            "count" : 734,
            "type" : "VEC3"
        },
        {
            "bufferView" : 38,
            "componentType" : 5126,
            "count" : 734,
            "type" : "VEC2"
        },
        {
            "bufferView" : 39,
            "componentType" : 5123,
            "count" : 1212,
            "type" : "SCALAR"
        }
    ],
    "bufferViews" : [
        {
            "buffer" : 0,
            "byteLength" : 48,
            "byteOffset" : 0
        },
        {
            "buffer" : 0,
            "byteLength" : 48,
            "byteOffset" : 48
        },
        {
            "buffer" : 0,
            "byteLength" : 32,
            "byteOffset" : 96
        },
        {
            "buffer" : 0,
            "byteLength" : 12,
            "byteOffset" : 128
        },
        {
            "buffer" : 0,
            "byteLength" : 7920,
            "byteOffset" : 140
        },
        {
            "buffer" : 0,
            "byteLength" : 7920,
            "byteOffset" : 8060
        },
        {
            "buffer" : 0,
            "byteLength" : 5280,
            "byteOffset" : 15980
        },
        {
            "buffer" : 0,
            "byteLength" : 1320,
            "byteOffset" : 21260
        },
        {
            "buffer" : 0,
            "byteLength" : 288,
            "byteOffset" : 22580
        },
        {
            "buffer" : 0,
            "byteLength" : 288,
            "byteOffset" : 22868
        },
        {
            "buffer" : 0,
            "byteLength" : 192,
            "byteOffset" : 23156
        },
        {
            "buffer" : 0,
            "byteLength" : 72,
            "byteOffset" : 23348
        },
        {
            "buffer" : 0,
            "byteLength" : 576,
            "byteOffset" : 23420
        },
        {
            "buffer" : 0,
            "byteLength" : 576,
            "byteOffset" : 23996
        },
        {
            "buffer" : 0,
            "byteLength" : 384,
            "byteOffset" : 24572
        },
        {
            "buffer" : 0,
            "byteLength" : 144,
            "byteOffset" : 24956
        },
        {
            "buffer" : 0,
            "byteLength" : 1920,
            "byteOffset" : 25100
        },
        {
            "buffer" : 0,
            "byteLength" : 1920,
            "byteOffset" : 27020
        },
        {
            "buffer" : 0,
            "byteLength" : 1280,
            "byteOffset" : 28940
        },
        {
            "buffer" : 0,
            "byteLength" : 480,
            "byteOffset" : 30220
        },
        {
            "buffer" : 0,
            "byteLength" : 960,
            "byteOffset" : 30700
        },
        {
            "buffer" : 0,
            "byteLength" : 960,
            "byteOffset" : 31660
        },
        {
            "buffer" : 0,
            "byteLength" : 640,
            "byteOffset" : 32620
        },
        {
            "buffer" : 0,
            "byteLength" : 264,
            "byteOffset" : 33260
        },
        {
            "buffer" : 0,
            "byteLength" : 1683648,
            "byteOffset" : 33524
        },
        {
            "buffer" : 0,
            "byteLength" : 1683648,
            "byteOffset" : 1717172
        },
        {
            "buffer" : 0,
            "byteLength" : 1122432,
            "byteOffset" : 3400820
        },
        {
            "buffer" : 0,
            "byteLength" : 841824,
            "byteOffset" : 4523252
        },
        {
            "buffer" : 0,
            "byteLength" : 27648,
            "byteOffset" : 5365076
        },
        {
            "buffer" : 0,
            "byteLength" : 27648,
            "byteOffset" : 5392724
        },
        {
            "buffer" : 0,
            "byteLength" : 18432,
            "byteOffset" : 5420372
        },
        {
            "buffer" : 0,
            "byteLength" : 8640,
            "byteOffset" : 5438804
        },
        {
            "buffer" : 0,
            "byteLength" : 13560,
            "byteOffset" : 5447444
        },
        {
            "buffer" : 0,
            "byteLength" : 13560,
            "byteOffset" : 5461004
        },
        {
            "buffer" : 0,
            "byteLength" : 9040,
            "byteOffset" : 5474564
        },
        {
            "buffer" : 0,
            "byteLength" : 3552,
            "byteOffset" : 5483604
        },
        {
            "buffer" : 0,
            "byteLength" : 8808,
            "byteOffset" : 5487156
        },
        {
            "buffer" : 0,
            "byteLength" : 8808,
            "byteOffset" : 5495964
        },
        {
            "buffer" : 0,
            "byteLength" : 5872,
            "byteOffset" : 5504772
        },
        {
            "buffer" : 0,
            "byteLength" : 2424,
            "byteOffset" : 5510644
        }
    ],
    "samplers" : [
        {
            "magFilter" : 9729,
            "minFilter" : 9986
        }
    ],
    "buffers" : [
        {
            "byteLength" : 5513068,
            "uri" : "end_scene.bin"
        }
    ]
}
