{
    "asset" : {
        "generator" : "Khronos glTF Blender I/O v1.4.40",
        "version" : "2.0"
    },
    "scene" : 0,
    "scenes" : [
        {
            "name" : "Scene",
            "nodes" : [
                1,
                2,
                3
            ]
        }
    ],
    "nodes" : [
        {
            "camera" : 0,
            "name" : "Camera",
            "rotation" : [
                -0.7071067690849304,
                0,
                0,
                0.7071067690849304
            ]
        },
        {
            "children" : [
                0
            ],
            "rotation" : [
                -0.45523717999458313,
                0.5410721302032471,
                -0.4552372395992279,
                -0.5410721898078918
            ],
            "translation" : [
                -9.062352180480957,
                2.7941837310791016,
                0
            ]
        },
        {
            "mesh" : 0,
            "name" : "bot2"
        },
        {
            "mesh" : 1,
            "name" : "top2"
        }
    ],
    "cameras" : [
        {
            "name" : "Camera",
            "perspective" : {
                "aspectRatio" : 1.7777777777777777,
                "yfov" : 0.39959652046304894,
                "zfar" : 100,
                "znear" : 0.10000000149011612
            },
            "type" : "perspective"
        }
    ],
    "materials" : [
        {
            "doubleSided" : true,
            "name" : "tank_2_color",
            "pbrMetallicRoughness" : {
                "baseColorTexture" : {
                    "index" : 0,
                    "texCoord" : 0
                },
                "metallicFactor" : 0,
                "roughnessFactor" : 0.5
            }
        },
        {
            "doubleSided" : true,
            "name" : "treds",
            "pbrMetallicRoughness" : {
                "baseColorTexture" : {
                    "index" : 1,
                    "texCoord" : 0
                },
                "metallicFactor" : 0,
                "roughnessFactor" : 0.5
            }
        },
        {
            "doubleSided" : true,
            "name" : "tank_3_color",
            "pbrMetallicRoughness" : {
                "baseColorTexture" : {
                    "index" : 2,
                    "texCoord" : 0
                },
                "metallicFactor" : 0,
                "roughnessFactor" : 0.5
            }
        }
    ],
    "meshes" : [
        {
            "name" : "Cube.012",
            "primitives" : [
                {
                    "attributes" : {
                        "POSITION" : 0,
                        "NORMAL" : 1,
                        "TEXCOORD_0" : 2
                    },
                    "indices" : 3,
                    "material" : 0
                },
                {
                    "attributes" : {
                        "POSITION" : 4,
                        "NORMAL" : 5,
                        "TEXCOORD_0" : 6
                    },
                    "indices" : 7,
                    "material" : 1
                },
                {
                    "attributes" : {
                        "POSITION" : 8,
                        "NORMAL" : 9,
                        "TEXCOORD_0" : 10
                    },
                    "indices" : 11,
                    "material" : 2
                }
            ]
        },
        {
            "name" : "Cylinder.002",
            "primitives" : [
                {
                    "attributes" : {
                        "POSITION" : 12,
                        "NORMAL" : 13,
                        "TEXCOORD_0" : 14
                    },
                    "indices" : 15,
                    "material" : 0
                }
            ]
        }
    ],
    "textures" : [
        {
            "sampler" : 0,
            "source" : 0
        },
        {
            "sampler" : 0,
            "source" : 1
        },
        {
            "sampler" : 0,
            "source" : 2
        }
    ],
    "images" : [
        {
            "mimeType" : "image/png",
            "name" : "tank_2_color",
            "uri" : "tank_2_color.png"
        },
        {
            "mimeType" : "image/png",
            "name" : "treds",
            "uri" : "treds.png"
        },
        {
            "mimeType" : "image/png",
            "name" : "tank_3_color",
            "uri" : "tank_3_color.png"
        }
    ],
    "accessors" : [
        {
            "bufferView" : 0,
            "componentType" : 5126,
            "count" : 148,
            "max" : [
                1.2355595827102661,
                0.8853984475135803,
                0.3966018855571747
            ],
            "min" : [
                -1.2059998512268066,
                0.1134636402130127,
                -0.3966018855571747
            ],
            "type" : "VEC3"
        },
        {
            "bufferView" : 1,
            "componentType" : 5126,
            "count" : 148,
            "type" : "VEC3"
        },
        {
            "bufferView" : 2,
            "componentType" : 5126,
            "count" : 148,
            "type" : "VEC2"
        },
        {
            "bufferView" : 3,
            "componentType" : 5123,
            "count" : 246,
            "type" : "SCALAR"
        },
        {
            "bufferView" : 4,
            "componentType" : 5126,
            "count" : 432,
            "max" : [
                1.2688424587249756,
                0.9109248518943787,
                0.6278171539306641
            ],
            "min" : [
                -1.1483551263809204,
                0.013733914121985435,
                -0.6278171539306641
            ],
            "type" : "VEC3"
        },
        {
            "bufferView" : 5,
            "componentType" : 5126,
            "count" : 432,
            "type" : "VEC3"
        },
        {
            "bufferView" : 6,
            "componentType" : 5126,
            "count" : 432,
            "type" : "VEC2"
        },
        {
            "bufferView" : 7,
            "componentType" : 5123,
            "count" : 744,
            "type" : "SCALAR"
        },
        {
            "bufferView" : 8,
            "componentType" : 5126,
            "count" : 1176,
            "max" : [
                1.1482337713241577,
                0.8213047385215759,
                0.6046619415283203
            ],
            "min" : [
                -1.1115596294403076,
                0.0778299868106842,
                -0.6046619415283203
            ],
            "type" : "VEC3"
        },
        {
            "bufferView" : 9,
            "componentType" : 5126,
            "count" : 1176,
            "type" : "VEC3"
        },
        {
            "bufferView" : 10,
            "componentType" : 5126,
            "count" : 1176,
            "type" : "VEC2"
        },
        {
            "bufferView" : 11,
            "componentType" : 5123,
            "count" : 2196,
            "type" : "SCALAR"
        },
        {
            "bufferView" : 12,
            "componentType" : 5126,
            "count" : 208,
            "max" : [
                0.8355928659439087,
                1.389835238456726,
                0.32599395513534546
            ],
            "min" : [
                -0.3259938955307007,
                0.8760431408882141,
                -0.3259938955307007
            ],
            "type" : "VEC3"
        },
        {
            "bufferView" : 13,
            "componentType" : 5126,
            "count" : 208,
            "type" : "VEC3"
        },
        {
            "bufferView" : 14,
            "componentType" : 5126,
            "count" : 208,
            "type" : "VEC2"
        },
        {
            "bufferView" : 15,
            "componentType" : 5123,
            "count" : 360,
            "type" : "SCALAR"
        }
    ],
    "bufferViews" : [
        {
            "buffer" : 0,
            "byteLength" : 1776,
            "byteOffset" : 0
        },
        {
            "buffer" : 0,
            "byteLength" : 1776,
            "byteOffset" : 1776
        },
        {
            "buffer" : 0,
            "byteLength" : 1184,
            "byteOffset" : 3552
        },
        {
            "buffer" : 0,
            "byteLength" : 492,
            "byteOffset" : 4736
        },
        {
            "buffer" : 0,
            "byteLength" : 5184,
            "byteOffset" : 5228
        },
        {
            "buffer" : 0,
            "byteLength" : 5184,
            "byteOffset" : 10412
        },
        {
            "buffer" : 0,
            "byteLength" : 3456,
            "byteOffset" : 15596
        },
        {
            "buffer" : 0,
            "byteLength" : 1488,
            "byteOffset" : 19052
        },
        {
            "buffer" : 0,
            "byteLength" : 14112,
            "byteOffset" : 20540
        },
        {
            "buffer" : 0,
            "byteLength" : 14112,
            "byteOffset" : 34652
        },
        {
            "buffer" : 0,
            "byteLength" : 9408,
            "byteOffset" : 48764
        },
        {
            "buffer" : 0,
            "byteLength" : 4392,
            "byteOffset" : 58172
        },
        {
            "buffer" : 0,
            "byteLength" : 2496,
            "byteOffset" : 62564
        },
        {
            "buffer" : 0,
            "byteLength" : 2496,
            "byteOffset" : 65060
        },
        {
            "buffer" : 0,
            "byteLength" : 1664,
            "byteOffset" : 67556
        },
        {
            "buffer" : 0,
            "byteLength" : 720,
            "byteOffset" : 69220
        }
    ],
    "samplers" : [
        {
            "magFilter" : 9729,
            "minFilter" : 9986
        }
    ],
    "buffers" : [
        {
            "byteLength" : 69940,
            "uri" : "tank2.bin"
        }
    ]
}
